<svg xmlns="http://www.w3.org/2000/svg" viewBox="0 0 32 32">
  <rect width="32" height="32" rx="7" fill="#06130b"/>
    <rect x="10" y="6" width="1.8" height="1.8" rx="0.3" fill="#7deaa8" opacity="0.85"/>
  <rect x="12" y="6" width="1.8" height="1.8" rx="0.3" fill="#3ed67c" opacity="0.85"/>
  <rect x="14" y="6" width="1.8" height="1.8" rx="0.3" fill="#16bd5a" opacity="0.85"/>
  <rect x="16" y="6" width="1.8" height="1.8" rx="0.3" fill="#3ed67c" opacity="0.85"/>
  <rect x="18" y="6" width="1.8" height="1.8" rx="0.3" fill="#16bd5a" opacity="0.85"/>
  <rect x="20" y="6" width="1.8" height="1.8" rx="0.3" fill="#7deaa8" opacity="0.85"/>
  <rect x="8" y="8" width="1.8" height="1.8" rx="0.3" fill="#3ed67c" opacity="0.85"/>
  <rect x="10" y="8" width="1.8" height="1.8" rx="0.3" fill="#04140b" opacity="1.0"/>
  <rect x="12" y="8" width="1.8" height="1.8" rx="0.3" fill="#04140b" opacity="1.0"/>
  <rect x="14" y="8" width="1.8" height="1.8" rx="0.3" fill="#3ed67c" opacity="1.0"/>
  <rect x="16" y="8" width="1.8" height="1.8" rx="0.3" fill="#16bd5a" opacity="1.0"/>
  <rect x="18" y="8" width="1.8" height="1.8" rx="0.3" fill="#3ed67c" opacity="1.0"/>
  <rect x="20" y="8" width="1.8" height="1.8" rx="0.3" fill="#16bd5a" opacity="0.85"/>
  <rect x="22" y="8" width="1.8" height="1.8" rx="0.3" fill="#7deaa8" opacity="0.85"/>
  <rect x="6" y="10" width="1.8" height="1.8" rx="0.3" fill="#3ed67c" opacity="0.85"/>
  <rect x="8" y="10" width="1.8" height="1.8" rx="0.3" fill="#16bd5a" opacity="0.85"/>
  <rect x="10" y="10" width="1.8" height="1.8" rx="0.3" fill="#04140b" opacity="1.0"/>
  <rect x="12" y="10" width="1.8" height="1.8" rx="0.3" fill="#16bd5a" opacity="1.0"/>
  <rect x="14" y="10" width="1.8" height="1.8" rx="0.3" fill="#7deaa8" opacity="1.0"/>
  <rect x="16" y="10" width="1.8" height="1.8" rx="0.3" fill="#3ed67c" opacity="1.0"/>
  <rect x="18" y="10" width="1.8" height="1.8" rx="0.3" fill="#16bd5a" opacity="1.0"/>
  <rect x="20" y="10" width="1.8" height="1.8" rx="0.3" fill="#04140b" opacity="1.0"/>
  <rect x="22" y="10" width="1.8" height="1.8" rx="0.3" fill="#16bd5a" opacity="0.85"/>
  <rect x="24" y="10" width="1.8" height="1.8" rx="0.3" fill="#7deaa8" opacity="0.85"/>
  <rect x="6" y="12" width="1.8" height="1.8" rx="0.3" fill="#7deaa8" opacity="0.85"/>
  <rect x="8" y="12" width="1.8" height="1.8" rx="0.3" fill="#3ed67c" opacity="1.0"/>
  <rect x="10" y="12" width="1.8" height="1.8" rx="0.3" fill="#16bd5a" opacity="1.0"/>
  <rect x="12" y="12" width="1.8" height="1.8" rx="0.3" fill="#3ed67c" opacity="1.0"/>
  <rect x="14" y="12" width="1.8" height="1.8" rx="0.3" fill="#16bd5a" opacity="1.0"/>
  <rect x="16" y="12" width="1.8" height="1.8" rx="0.3" fill="#7deaa8" opacity="1.0"/>
  <rect x="18" y="12" width="1.8" height="1.8" rx="0.3" fill="#3ed67c" opacity="1.0"/>
  <rect x="20" y="12" width="1.8" height="1.8" rx="0.3" fill="#16bd5a" opacity="1.0"/>
  <rect x="22" y="12" width="1.8" height="1.8" rx="0.3" fill="#04140b" opacity="1.0"/>
  <rect x="24" y="12" width="1.8" height="1.8" rx="0.3" fill="#16bd5a" opacity="0.85"/>
  <rect x="6" y="14" width="1.8" height="1.8" rx="0.3" fill="#16bd5a" opacity="0.85"/>
  <rect x="8" y="14" width="1.8" height="1.8" rx="0.3" fill="#7deaa8" opacity="1.0"/>
  <rect x="10" y="14" width="1.8" height="1.8" rx="0.3" fill="#3ed67c" opacity="1.0"/>
  <rect x="12" y="14" width="1.8" height="1.8" rx="0.3" fill="#16bd5a" opacity="1.0"/>
  <rect x="14" y="14" width="1.8" height="1.8" rx="0.3" fill="#04140b" opacity="1.0"/>
  <rect x="16" y="14" width="1.8" height="1.8" rx="0.3" fill="#04140b" opacity="1.0"/>
  <rect x="18" y="14" width="1.8" height="1.8" rx="0.3" fill="#7deaa8" opacity="1.0"/>
  <rect x="20" y="14" width="1.8" height="1.8" rx="0.3" fill="#3ed67c" opacity="1.0"/>
  <rect x="22" y="14" width="1.8" height="1.8" rx="0.3" fill="#16bd5a" opacity="1.0"/>
  <rect x="24" y="14" width="1.8" height="1.8" rx="0.3" fill="#3ed67c" opacity="0.85"/>
  <rect x="6" y="16" width="1.8" height="1.8" rx="0.3" fill="#3ed67c" opacity="0.85"/>
  <rect x="8" y="16" width="1.8" height="1.8" rx="0.3" fill="#16bd5a" opacity="1.0"/>
  <rect x="10" y="16" width="1.8" height="1.8" rx="0.3" fill="#7deaa8" opacity="1.0"/>
  <rect x="12" y="16" width="1.8" height="1.8" rx="0.3" fill="#3ed67c" opacity="1.0"/>
  <rect x="14" y="16" width="1.8" height="1.8" rx="0.3" fill="#04140b" opacity="1.0"/>
  <rect x="16" y="16" width="1.8" height="1.8" rx="0.3" fill="#04140b" opacity="1.0"/>
  <rect x="18" y="16" width="1.8" height="1.8" rx="0.3" fill="#16bd5a" opacity="1.0"/>
  <rect x="20" y="16" width="1.8" height="1.8" rx="0.3" fill="#7deaa8" opacity="1.0"/>
  <rect x="22" y="16" width="1.8" height="1.8" rx="0.3" fill="#3ed67c" opacity="1.0"/>
  <rect x="24" y="16" width="1.8" height="1.8" rx="0.3" fill="#16bd5a" opacity="0.85"/>
  <rect x="6" y="18" width="1.8" height="1.8" rx="0.3" fill="#16bd5a" opacity="0.85"/>
  <rect x="8" y="18" width="1.8" height="1.8" rx="0.3" fill="#04140b" opacity="1.0"/>
  <rect x="10" y="18" width="1.8" height="1.8" rx="0.3" fill="#16bd5a" opacity="1.0"/>
  <rect x="12" y="18" width="1.8" height="1.8" rx="0.3" fill="#7deaa8" opacity="1.0"/>
  <rect x="14" y="18" width="1.8" height="1.8" rx="0.3" fill="#3ed67c" opacity="1.0"/>
  <rect x="16" y="18" width="1.8" height="1.8" rx="0.3" fill="#16bd5a" opacity="1.0"/>
  <rect x="18" y="18" width="1.8" height="1.8" rx="0.3" fill="#3ed67c" opacity="1.0"/>
  <rect x="20" y="18" width="1.8" height="1.8" rx="0.3" fill="#16bd5a" opacity="1.0"/>
  <rect x="22" y="18" width="1.8" height="1.8" rx="0.3" fill="#7deaa8" opacity="1.0"/>
  <rect x="24" y="18" width="1.8" height="1.8" rx="0.3" fill="#3ed67c" opacity="0.85"/>
  <rect x="6" y="20" width="1.8" height="1.8" rx="0.3" fill="#3ed67c" opacity="0.85"/>
  <rect x="8" y="20" width="1.8" height="1.8" rx="0.3" fill="#16bd5a" opacity="0.85"/>
  <rect x="10" y="20" width="1.8" height="1.8" rx="0.3" fill="#04140b" opacity="1.0"/>
  <rect x="12" y="20" width="1.8" height="1.8" rx="0.3" fill="#16bd5a" opacity="1.0"/>
  <rect x="14" y="20" width="1.8" height="1.8" rx="0.3" fill="#7deaa8" opacity="1.0"/>
  <rect x="16" y="20" width="1.8" height="1.8" rx="0.3" fill="#3ed67c" opacity="1.0"/>
  <rect x="18" y="20" width="1.8" height="1.8" rx="0.3" fill="#04140b" opacity="1.0"/>
  <rect x="20" y="20" width="1.8" height="1.8" rx="0.3" fill="#3ed67c" opacity="1.0"/>
  <rect x="22" y="20" width="1.8" height="1.8" rx="0.3" fill="#16bd5a" opacity="0.85"/>
  <rect x="24" y="20" width="1.8" height="1.8" rx="0.3" fill="#7deaa8" opacity="0.85"/>
  <rect x="8" y="22" width="1.8" height="1.8" rx="0.3" fill="#3ed67c" opacity="0.85"/>
  <rect x="10" y="22" width="1.8" height="1.8" rx="0.3" fill="#16bd5a" opacity="0.85"/>
  <rect x="12" y="22" width="1.8" height="1.8" rx="0.3" fill="#3ed67c" opacity="1.0"/>
  <rect x="14" y="22" width="1.8" height="1.8" rx="0.3" fill="#16bd5a" opacity="1.0"/>
  <rect x="16" y="22" width="1.8" height="1.8" rx="0.3" fill="#7deaa8" opacity="1.0"/>
  <rect x="18" y="22" width="1.8" height="1.8" rx="0.3" fill="#04140b" opacity="1.0"/>
  <rect x="20" y="22" width="1.8" height="1.8" rx="0.3" fill="#04140b" opacity="1.0"/>
  <rect x="22" y="22" width="1.8" height="1.8" rx="0.3" fill="#3ed67c" opacity="0.85"/>
  <rect x="10" y="24" width="1.8" height="1.8" rx="0.3" fill="#3ed67c" opacity="0.85"/>
  <rect x="12" y="24" width="1.8" height="1.8" rx="0.3" fill="#16bd5a" opacity="0.85"/>
  <rect x="14" y="24" width="1.8" height="1.8" rx="0.3" fill="#3ed67c" opacity="0.85"/>
  <rect x="16" y="24" width="1.8" height="1.8" rx="0.3" fill="#16bd5a" opacity="0.85"/>
  <rect x="18" y="24" width="1.8" height="1.8" rx="0.3" fill="#7deaa8" opacity="0.85"/>
  <rect x="20" y="24" width="1.8" height="1.8" rx="0.3" fill="#3ed67c" opacity="0.85"/>
</svg>
